

<svg version="1.1" id="panasonic" xmlns="http://www.w3.org/2000/svg" xmlns:xlink="http://www.w3.org/1999/xlink" x="0px" y="0px"
	 width="500px" height="135px" viewBox="0 0 500 135" enable-background="new 0 0 500 135" xml:space="preserve">
<path d="M118.8,118.7H91.3l-8.4-20.3H37.2l-7.7,20.3h-27L43.8,16.4h29.6L118.8,118.7z M58.9,40.8l-15,39.8h31.5L58.9,40.8z
	 M218.5,16.4h22.2v102.3h-25.5V54.8l-27.6,32.1h-3.9l-27.6-32.1v63.9h-25.5V16.4h22.2l32.9,38L218.5,16.4z M305.3,16.4
	c37.3,0,56.6,23.2,56.6,51.3c0,29.4-18.6,51-59.4,51h-42.3V16.4H305.3z M285.6,99.9h16.6c25.6,0,33.3-17.4,33.3-32.4
	c0-17.6-9.5-32.4-33.6-32.4h-16.3V99.9z"/>
<path fill="#00A66E" d="M465.3,40.6h-52.8L380.4,8.5h117.1v117.1l-32.2-32.2V40.6z M412.6,93.4V47.1l-33.1,33.1v46.3h46.3l33.1-33.1
	H412.6z"/>
</svg>
